<?xml version="1.0"?>
<svg xmlns="http://www.w3.org/2000/svg" xmlns:xlink="http://www.w3.org/1999/xlink" xmlns:svgjs="http://svgjs.com/svgjs" version="1.1" width="512" height="512" x="0" y="0" viewBox="0 0 64 64" style="enable-background:new 0 0 512 512" xml:space="preserve" class=""><g><link type="text/css" rel="stylesheet" id="dark-mode-general-link"/><link type="text/css" rel="stylesheet" id="dark-mode-custom-link"/><style lang="en" type="text/css" id="dark-mode-custom-style"/><g xmlns="http://www.w3.org/2000/svg" id="book-favortie-user_interface-notebook-star" data-name="book-favortie-user interface-notebook-star"><path d="M51,2H13A5,5,0,0,0,8,7V56a6,6,0,0,0,6,6H51a5,5,0,0,0,5-5V7A5,5,0,0,0,51,2ZM16,4h8V16.92l-3.38-2.7a.984.984,0,0,0-1.24,0L16,16.92ZM54,52a3.009,3.009,0,0,1-3,3H19a1,1,0,0,0,0,2H51a4.924,4.924,0,0,0,3-1.03V57a3.009,3.009,0,0,1-3,3H14a4,4,0,0,1,0-8H51a4.985,4.985,0,0,0,3-1Zm0-5a3.009,3.009,0,0,1-3,3H14a5.979,5.979,0,0,0-4,1.54V7a3.009,3.009,0,0,1,3-3h1V19a1,1,0,0,0,.57.9.981.981,0,0,0,1.05-.12L20,16.28l4.38,3.5A.961.961,0,0,0,25,20a.907.907,0,0,0,.43-.1A1,1,0,0,0,26,19V4H51a3.009,3.009,0,0,1,3,3Z" fill="#faee1c" data-original="#000000" style="" class=""/><path d="M15,55H13a1,1,0,0,0,0,2h2a1,1,0,0,0,0-2Z" fill="#faee1c" data-original="#000000" style="" class=""/><path d="M44,46h3a3,3,0,0,0,3-3V40a1,1,0,0,0-2,0v3a1,1,0,0,1-1,1H44a1,1,0,0,0,0,2Z" fill="#faee1c" data-original="#000000" style="" class=""/><path d="M21.591,29.618l4.531,3.292-1.73,5.326a2,2,0,0,0,3.077,2.236L32,37.18l4.531,3.292a1.971,1.971,0,0,0,2.351,0,1.97,1.97,0,0,0,.726-2.236l-1.73-5.326,4.531-3.292A2,2,0,0,0,41.233,26h-5.6L33.9,20.674a2,2,0,0,0-3.8,0L28.367,26h-5.6a2,2,0,0,0-1.176,3.618ZM28.367,28a2,2,0,0,0,1.9-1.382L32,21.28l0,.012,1.73,5.326A2,2,0,0,0,35.633,28h5.6L36.7,31.292a2,2,0,0,0-.726,2.236l1.731,5.326-4.532-3.292a2,2,0,0,0-2.351,0l-4.53,3.292,1.73-5.327a2,2,0,0,0-.726-2.235L22.767,28Z" fill="#faee1c" data-original="#000000" style="" class=""/></g></g></svg>
